<?xml version="1.0" standalone="no"?>
<!DOCTYPE svg PUBLIC "-//W3C//DTD SVG 20010904//EN"
 "http://www.w3.org/TR/2001/REC-SVG-20010904/DTD/svg10.dtd">
<svg version="1.0" xmlns="http://www.w3.org/2000/svg"
 width="180.000000pt" height="180.000000pt" viewBox="0 0 180.000000 180.000000"
 preserveAspectRatio="xMidYMid meet">
<metadata>
Created by potrace 1.11, written by Peter Selinger 2001-2013
</metadata>
<g transform="translate(0.000000,180.000000) scale(0.100000,-0.100000)"
fill="#000000" stroke="none">
<path d="M174 1706 c-123 -57 -182 -201 -135 -327 46 -121 143 -189 270 -189
57 0 226 42 245 60 20 20 -4 20 -79 -1 -144 -39 -244 -23 -323 53 -61 60 -90
187 -59 261 59 140 223 181 310 78 22 -27 27 -29 27 -13 0 34 -12 82 -19 77
-4 -2 -25 2 -47 10 -60 22 -131 18 -190 -9z"/>
<path d="M1001 1636 c-26 -27 -31 -36 -18 -36 14 0 17 -11 17 -65 0 -57 3 -66
24 -80 18 -12 30 -13 50 -6 14 6 26 15 26 20 0 6 -7 8 -15 5 -28 -11 -45 16
-45 71 0 51 2 54 33 66 l32 13 -32 3 c-23 3 -33 10 -35 24 -3 18 -7 17 -37
-15z"/>
<path d="M1148 1635 c-9 -7 -12 -31 -10 -78 3 -45 -1 -73 -9 -83 -11 -14 -8
-15 27 -11 28 3 38 8 35 18 -11 33 -12 121 -2 133 6 7 23 11 39 8 23 -3 32
-14 56 -73 37 -89 30 -106 -57 -148 -65 -31 -101 -71 -80 -92 35 -35 123 50
198 190 28 51 60 104 73 118 29 31 24 36 -23 27 -23 -4 -32 -9 -25 -14 16 -10
7 -50 -19 -81 l-18 -23 -18 33 c-9 19 -15 45 -12 58 4 23 2 25 -24 21 -16 -3
-29 -1 -29 3 0 11 -87 6 -102 -6z m84 -265 c-32 -30 -52 -38 -52 -22 0 11 30
38 50 45 33 12 34 5 2 -23z"/>
<path d="M837 1609 c-9 -6 -25 -8 -35 -5 -37 12 -48 -13 -44 -101 3 -74 6 -83
23 -83 16 0 19 7 19 54 0 99 35 150 74 110 19 -19 22 -124 4 -142 -9 -9 -7
-12 13 -11 36 1 65 14 51 23 -7 4 -12 32 -12 67 0 82 -39 119 -93 88z"/>
<path d="M651 1581 c-9 -6 -10 -11 -2 -15 6 -4 11 -35 11 -70 0 -48 -5 -70
-19 -87 -16 -20 -23 -22 -38 -13 -14 9 -19 28 -23 90 -3 55 -9 79 -17 78 -7
-1 -22 -2 -34 -2 -17 -2 -18 -4 -6 -16 8 -8 14 -38 16 -72 2 -75 8 -91 32
-105 15 -7 28 -6 51 5 17 9 35 13 40 10 5 -3 15 0 23 6 11 9 15 36 15 106 0
83 -2 94 -17 94 -10 0 -24 -4 -32 -9z"/>
<path d="M324 1506 c-37 -37 -43 -68 -23 -124 13 -39 48 -62 93 -62 27 0 41 8
66 37 29 33 32 41 27 87 -9 96 -96 129 -163 62z m96 6 c46 -38 34 -156 -18
-169 -20 -5 -31 0 -50 22 -21 24 -23 36 -19 79 3 36 11 55 27 68 28 22 32 22
60 0z"/>
<path d="M1340 1431 c-14 -4 27 -7 90 -7 159 -1 267 -37 301 -102 27 -50 -44
-126 -160 -172 -83 -32 -81 -34 -81 80 0 55 -2 100 -5 100 -2 0 -14 -5 -27
-10 -23 -11 -23 -13 -20 -147 2 -88 0 -139 -7 -146 -19 -19 -12 -27 27 -27
l39 0 -4 58 -4 57 41 -44 c31 -34 38 -47 29 -57 -9 -12 -2 -14 45 -14 l56 0
-55 53 c-30 29 -55 58 -55 64 0 6 28 21 62 34 83 31 158 101 158 148 0 47 -59
104 -130 125 -56 17 -250 21 -300 7z"/>
<path d="M726 1385 c-130 -46 -193 -203 -132 -330 46 -98 118 -146 227 -153
56 -3 76 0 142 28 l77 32 297 -3 c212 -2 298 0 300 8 3 8 -79 12 -293 12 -293
1 -299 0 -378 -25 -98 -31 -153 -28 -229 13 -175 95 -146 361 45 408 47 12
123 -21 169 -73 25 -29 39 -39 36 -27 -3 11 -8 36 -11 55 -4 24 -12 36 -24 37
-9 1 -35 8 -57 17 -50 19 -118 20 -169 1z"/>
<path d="M1010 1390 c-11 -7 -8 -10 15 -9 17 0 39 4 50 9 16 7 14 9 -15 9 -19
0 -42 -4 -50 -9z"/>
<path d="M752 1340 c-35 -8 -49 -17 -40 -25 7 -7 100 15 113 26 11 11 -27 10
-73 -1z"/>
<path d="M945 1207 c-15 -12 -18 -26 -16 -91 1 -48 -2 -83 -10 -92 -10 -12 -5
-14 30 -14 39 0 41 1 30 21 -12 22 -9 143 4 155 4 4 18 2 32 -4 21 -10 27 -9
32 4 9 24 -10 36 -39 25 -16 -6 -29 -6 -35 0 -6 6 -16 4 -28 -4z"/>
<path d="M1092 1200 c-73 -45 -67 -159 11 -191 26 -11 35 -10 66 7 20 10 37
27 39 36 3 16 1 16 -25 3 -49 -26 -103 6 -103 62 l0 33 71 0 c61 0 70 2 65 16
-3 9 -6 17 -6 20 0 6 -58 34 -72 34 -7 0 -28 -9 -46 -20z m66 -12 c21 -21 13
-28 -28 -28 -22 0 -40 4 -40 8 0 14 23 32 40 32 9 0 21 -5 28 -12z"/>
<path d="M1265 1186 c-49 -49 -41 -130 17 -166 38 -23 72 -19 103 11 l20 20
-37 -6 c-33 -6 -41 -3 -68 24 -21 20 -30 39 -28 53 3 22 7 23 71 21 59 -3 67
-1 67 15 0 53 -101 72 -145 28z m93 2 c21 -21 13 -28 -35 -28 -45 0 -46 0 -28
20 20 23 45 26 63 8z"/>
<path d="M1505 750 c3 -5 8 -10 11 -10 2 0 4 5 4 10 0 6 -5 10 -11 10 -5 0 -7
-4 -4 -10z"/>
<path d="M1280 667 c0 -8 -6 -20 -14 -26 -15 -12 -10 -55 5 -45 5 3 9 -1 9 -8
0 -8 5 -6 11 5 5 9 20 18 32 18 16 1 17 3 5 6 -9 2 -18 16 -20 30 -3 28 -28
45 -28 20z"/>
<path d="M72 658 c-7 -7 -11 -21 -11 -32 1 -17 2 -18 6 -3 7 27 17 20 30 -20
13 -42 1 -67 -16 -34 -7 12 -21 21 -34 20 -21 0 -21 -1 -2 -9 30 -12 48 -37
42 -60 -3 -13 0 -20 10 -20 8 0 13 7 11 18 -2 11 6 21 24 29 34 15 36 33 4 33
-16 0 -26 7 -29 22 -7 26 1 38 12 20 5 -8 15 -10 30 -4 l22 8 -21 22 c-23 25
-36 28 -43 10 -4 -10 -6 -10 -6 0 -1 15 -13 16 -29 0z"/>
<path d="M442 625 c3 -24 0 -35 -9 -35 -8 0 -13 -12 -13 -29 0 -24 3 -28 24
-24 17 4 28 -2 40 -18 26 -37 2 -52 -83 -52 -39 0 -68 -4 -65 -8 3 -5 16 -9
28 -9 13 0 41 -6 62 -13 65 -23 94 -28 94 -17 0 5 -7 10 -16 10 -8 0 -22 6
-29 14 -12 12 -10 16 16 26 22 9 28 17 23 29 -17 42 -15 49 14 59 17 6 35 6
43 1 22 -14 31 -11 27 9 -2 9 -10 17 -18 17 -9 0 -14 8 -12 18 5 27 -17 50
-34 36 -11 -9 -14 -8 -14 2 -1 10 -4 8 -11 -3 -5 -10 -15 -18 -20 -18 -6 0 -7
5 -3 12 5 8 2 9 -9 5 -11 -4 -17 -1 -17 8 0 8 -5 15 -11 15 -7 0 -10 -14 -7
-35z m74 -31 c-4 -9 -9 -15 -11 -12 -3 3 -3 13 1 22 4 9 9 15 11 12 3 -3 3
-13 -1 -22z m29 7 c3 -5 2 -12 -3 -15 -5 -3 -9 1 -9 9 0 17 3 19 12 6z m-62
-31 c3 -11 1 -23 -4 -26 -5 -3 -9 2 -9 11 0 13 -4 14 -20 5 -25 -13 -27 5 -2
19 24 15 29 14 35 -9z"/>
<path d="M1390 635 c0 -9 -11 -20 -23 -24 -23 -9 -24 -13 -25 -137 0 -75 4
-134 10 -141 17 -21 0 -70 -27 -75 -14 -3 -22 -2 -20 3 3 4 1 10 -4 13 -16 10
-22 -12 -9 -33 16 -26 45 -33 53 -13 5 14 7 14 16 2 8 -13 10 -13 19 0 6 10
10 11 10 3 0 -9 11 -6 35 7 19 11 35 16 35 12 0 -4 6 4 13 18 7 14 21 26 32
28 11 2 27 10 35 18 11 9 32 12 69 8 53 -5 53 -5 49 20 -6 28 5 32 50 19 17
-4 22 -11 19 -25 -5 -16 0 -18 34 -16 23 2 39 8 39 16 0 6 -3 11 -7 11 -24 -4
-33 4 -33 29 -1 26 -1 26 -15 8 -14 -19 -21 -12 -16 17 0 4 -4 7 -10 7 -6 0
-8 9 -4 20 3 11 2 20 -3 20 -18 0 -19 -24 -4 -47 14 -22 13 -23 -17 -23 -34 0
-38 7 -17 36 10 13 11 23 4 31 -6 7 -7 13 -2 13 5 1 -13 10 -41 21 -81 33
-135 28 -185 -18 -19 -18 -41 -31 -49 -28 -9 3 -11 0 -7 -10 3 -8 2 -23 -1
-32 -6 -16 -8 -15 -13 5 -7 32 0 173 9 167 12 -7 32 45 26 66 -8 23 -25 25
-25 4z"/>
<path d="M1090 630 c-11 -8 -5 -9 20 -5 19 3 36 8 39 11 9 9 -45 3 -59 -6z"/>
<path d="M1193 629 c14 -8 22 -8 30 0 8 8 3 11 -18 11 -26 -1 -28 -2 -12 -11z"/>
<path d="M1660 619 c0 -6 -7 -17 -16 -26 -15 -15 -57 -14 -131 3 -19 4 -25 3
-18 -3 6 -6 39 -16 75 -22 36 -7 84 -24 108 -37 23 -14 42 -21 42 -15 0 5 14
5 35 -1 33 -11 34 -13 38 -67 2 -42 3 -36 4 24 0 44 -1 72 -4 63 -2 -10 -10
-18 -16 -18 -15 0 -46 20 -32 20 6 0 4 4 -4 9 -8 5 -11 16 -8 26 4 9 11 13 17
10 5 -3 10 -4 10 -1 0 2 -14 11 -31 20 -25 12 -29 13 -19 1 7 -9 8 -20 3 -30
-7 -12 -12 -9 -23 20 -13 33 -30 47 -30 24z m10 -44 c-7 -8 -16 -12 -21 -9
-13 8 -1 24 18 24 13 0 13 -3 3 -15z"/>
<path d="M20 610 c0 -5 5 -10 10 -10 6 0 10 5 10 10 0 6 -4 10 -10 10 -5 0
-10 -4 -10 -10z"/>
<path d="M145 600 c3 -5 10 -10 16 -10 5 0 9 5 9 10 0 6 -7 10 -16 10 -8 0
-12 -4 -9 -10z"/>
<path d="M930 596 c-16 -7 -20 -18 -20 -57 0 -55 -11 -67 -42 -45 -30 21 -60
20 -91 -4 -14 -11 -30 -20 -36 -20 -6 0 -11 -7 -11 -15 0 -8 -5 -15 -10 -15
-13 0 -11 80 3 98 7 9 4 12 -12 12 -24 0 -25 -8 -21 -115 1 -38 6 -73 11 -76
7 -4 28 -98 29 -126 0 -2 8 -3 18 -2 10 0 12 3 5 6 -21 8 -15 23 9 23 12 0 18
-3 15 -7 -25 -24 68 -45 103 -23 13 8 12 10 -2 10 -10 0 -18 5 -18 11 0 5 4 8
9 5 16 -10 29 18 42 87 9 50 10 73 1 91 -8 17 -8 26 0 28 5 2 10 29 9 60 0 32
4 60 9 63 6 4 10 -4 11 -17 6 -183 4 -248 -5 -248 -6 0 -4 -4 4 -10 8 -5 16
-8 18 -6 1 2 5 46 8 97 4 79 7 117 13 191 1 4 11 9 24 11 12 2 5 4 -15 3 -21
0 -46 -5 -58 -10z m-127 -290 c4 -10 -4 -17 -24 -21 -17 -4 -33 -4 -36 -1 -4
3 2 6 13 6 16 1 15 3 -6 15 l-25 14 36 1 c23 0 39 -5 42 -14z m87 -6 c0 -5 -9
-10 -21 -10 -11 0 -17 5 -14 10 3 6 13 10 21 10 8 0 14 -4 14 -10z"/>
<path d="M635 590 c3 -5 10 -10 16 -10 5 0 9 5 9 10 0 6 -7 10 -16 10 -8 0
-12 -4 -9 -10z"/>
<path d="M740 583 c0 -13 3 -14 12 -5 17 17 29 15 22 -3 -4 -8 -13 -15 -22
-15 -13 0 -14 -2 -3 -12 10 -11 16 -8 32 11 26 32 24 41 -11 41 -22 0 -30 -5
-30 -17z"/>
<path d="M693 575 c0 -9 4 -14 9 -13 5 2 10 8 10 13 0 5 -5 11 -10 13 -5 1 -9
-4 -9 -13z"/>
<path d="M865 580 c-16 -7 -17 -9 -3 -9 9 -1 20 4 23 9 7 11 7 11 -20 0z"/>
<path d="M1105 571 c6 -10 -32 -26 -53 -23 -6 2 -20 -2 -30 -8 -16 -11 -16
-11 1 -6 9 3 17 3 17 1 0 -9 -38 -67 -45 -68 -16 -4 -23 -186 -9 -209 3 -4 16
-8 30 -8 23 0 24 -1 10 -16 -21 -21 -20 -36 4 -62 27 -28 30 -28 26 6 -2 15
-1 21 1 15 2 -7 9 -13 13 -13 6 0 6 11 0 25 -11 28 -2 32 32 14 15 -8 19 -8
14 0 -4 6 -3 11 2 11 6 0 13 -12 18 -27 5 -21 8 -24 11 -10 5 20 19 23 26 5 3
-7 6 -3 6 10 1 22 2 22 26 6 14 -9 26 -15 26 -13 1 2 2 21 3 41 2 45 6 49 44
50 27 1 31 5 36 40 4 24 1 51 -8 73 -15 36 -16 38 -16 53 0 5 -11 22 -25 38
-14 16 -25 32 -25 37 0 4 -7 7 -15 7 -8 0 -15 5 -15 10 0 6 -9 10 -21 10 -13
0 -18 4 -13 12 7 11 4 10 -43 -9 -7 -3 -13 0 -13 6 0 6 -5 11 -11 11 -5 0 -8
-4 -4 -9z m185 -162 c0 -12 -7 -19 -20 -19 -23 0 -24 4 -8 29 14 23 28 18 28
-10z m10 -65 c0 -9 -11 -14 -30 -14 -27 0 -40 17 -25 32 10 10 55 -5 55 -18z
m-250 -53 c0 -5 -9 -7 -20 -4 -11 3 -20 7 -20 9 0 2 9 4 20 4 11 0 20 -4 20
-9z m53 -8 c-7 -2 -19 -2 -25 0 -7 3 -2 5 12 5 14 0 19 -2 13 -5z m33 -33 c26
0 34 -4 33 -17 0 -11 -3 -13 -6 -5 -3 7 -24 12 -54 12 -33 0 -48 4 -44 11 4 6
14 8 22 5 8 -3 30 -6 49 -6z m84 -21 c0 -6 -4 -7 -10 -4 -5 3 -10 11 -10 16 0
6 5 7 10 4 6 -3 10 -11 10 -16z"/>
<path d="M808 563 c6 -2 18 -2 25 0 6 3 1 5 -13 5 -14 0 -19 -2 -12 -5z"/>
<path d="M1311 554 c0 -11 3 -14 6 -6 3 7 2 16 -1 19 -3 4 -6 -2 -5 -13z"/>
<path d="M347 540 c-3 -11 -1 -20 4 -20 5 0 9 9 9 20 0 11 -2 20 -4 20 -2 0
-6 -9 -9 -20z"/>
<path d="M539 549 c-11 -6 -11 -13 -3 -26 13 -20 54 -30 54 -13 0 6 5 8 10 5
18 -11 80 15 73 31 -3 8 -9 14 -14 14 -4 0 -6 -7 -2 -16 4 -12 0 -14 -23 -11
-16 2 -40 0 -52 -5 -13 -4 -29 -5 -35 -1 -7 4 -2 9 13 13 19 5 21 7 9 12 -9 3
-22 2 -30 -3z"/>
<path d="M385 520 c3 -5 8 -10 11 -10 2 0 4 5 4 10 0 6 -5 10 -11 10 -5 0 -7
-4 -4 -10z"/>
<path d="M1747 487 c-3 -8 -1 -20 4 -28 6 -10 9 -7 9 14 0 29 -5 35 -13 14z"/>
<path d="M185 480 c27 -12 43 -12 25 0 -8 5 -22 9 -30 9 -10 0 -8 -3 5 -9z"/>
<path d="M592 457 c-31 -32 -27 -47 18 -84 59 -50 66 -45 60 42 -2 44 -6 50
-36 59 -14 4 -27 -1 -42 -17z"/>
<path d="M1751 424 c0 -11 3 -14 6 -6 3 7 2 16 -1 19 -3 4 -6 -2 -5 -13z"/>
<path d="M384 391 c4 -6 14 -11 22 -11 8 0 14 -7 14 -16 0 -8 5 -12 10 -9 14
9 13 -8 -2 -23 -17 -17 -57 -15 -64 3 -5 12 -9 12 -30 -2 -19 -12 -36 -14 -72
-8 -26 4 -51 7 -57 7 -28 0 -127 -14 -152 -22 -26 -9 -26 -10 9 -7 21 2 39 -1
40 -5 2 -5 42 -11 90 -15 48 -3 85 -9 83 -13 -6 -10 14 -17 45 -15 14 1 40 2
58 3 19 1 31 6 27 12 -4 6 11 10 37 9 36 -1 39 -2 18 -9 -20 -6 -15 -8 26 -9
30 -1 58 5 70 14 10 8 23 15 28 15 6 0 1 -7 -10 -15 -17 -13 -17 -14 -1 -15
20 0 23 -26 5 -33 -7 -3 -1 -6 13 -6 29 -1 52 20 68 61 10 27 8 29 -39 53 -42
21 -56 24 -90 16 -22 -5 -42 -6 -45 -1 -7 12 6 20 34 21 20 1 16 4 -14 10 -81
19 -128 23 -121 10z m249 -78 c-7 -2 -21 -2 -30 0 -10 3 -4 5 12 5 17 0 24 -2
18 -5z m-244 -39 c2 -2 -7 -4 -22 -4 -14 0 -29 5 -32 10 -6 10 42 4 54 -6z"/>
<path d="M0 329 c0 -5 9 -9 20 -9 26 0 26 15 0 17 -11 1 -20 -2 -20 -8z"/>
<path d="M1670 330 c0 -5 5 -10 10 -10 6 0 10 5 10 10 0 6 -4 10 -10 10 -5 0
-10 -4 -10 -10z"/>
<path d="M697 317 c-3 -8 -1 -20 4 -28 6 -10 9 -7 9 14 0 29 -5 35 -13 14z"/>
<path d="M690 261 c0 -6 5 -13 10 -16 6 -3 10 1 10 9 0 9 -4 16 -10 16 -5 0
-10 -4 -10 -9z"/>
<path d="M306 232 c-6 -10 -1 -47 6 -47 2 0 12 8 21 17 16 16 16 18 -2 28 -11
5 -22 6 -25 2z"/>
<path d="M1260 225 c0 -9 5 -15 11 -13 6 2 11 8 11 13 0 5 -5 11 -11 13 -6 2
-11 -4 -11 -13z"/>
<path d="M175 210 c-11 -5 -14 -9 -7 -9 7 -1 11 -5 8 -10 -3 -5 2 -15 11 -22
15 -12 16 -11 11 9 -4 12 -2 22 3 22 5 0 9 5 9 10 0 12 -8 12 -35 0z"/>
<path d="M737 209 c7 -7 15 -10 18 -7 3 3 -2 9 -12 12 -14 6 -15 5 -6 -5z"/>
<path d="M940 187 c0 -23 7 -40 23 -53 12 -10 16 -12 10 -4 -15 17 -17 34 -3
25 13 -8 12 -5 -1 34 -14 41 -29 40 -29 -2z"/>
<path d="M250 183 c1 -27 1 -27 15 -9 19 25 19 36 0 36 -10 0 -15 -10 -15 -27z"/>
<path d="M803 203 c-23 -9 -13 -23 16 -23 16 0 34 7 41 15 11 13 8 15 -16 14
-16 0 -35 -3 -41 -6z"/>
<path d="M1090 201 c0 -5 7 -14 15 -21 12 -10 15 -10 15 3 0 8 -7 17 -15 21
-8 3 -15 2 -15 -3z"/>
<path d="M1376 167 c3 -10 9 -15 12 -12 3 3 0 11 -7 18 -10 9 -11 8 -5 -6z"/>
<path d="M996 153 c-11 -11 -6 -23 9 -23 8 0 15 4 15 9 0 13 -16 22 -24 14z"/>
<path d="M850 134 c0 -8 5 -12 10 -9 6 3 10 10 10 16 0 5 -4 9 -10 9 -5 0 -10
-7 -10 -16z"/>
<path d="M900 130 c0 -5 5 -10 11 -10 5 0 7 5 4 10 -3 6 -8 10 -11 10 -2 0 -4
-4 -4 -10z"/>
<path d="M818 123 c7 -3 16 -2 19 1 4 3 -2 6 -13 5 -11 0 -14 -3 -6 -6z"/>
</g>
</svg>
